# xmcd
# 
# Track frame offsets:
#     150
#     14478
#     25972
#     38472
#     49282
#     62854
#     75127
#     88980
#     101107
#     114499
#     129087
#     142684
#     157634
#     174007
#     186332
#     199098
#     210681
#     223484
#     240100
#     254889
# 
# Disc length: 3560
# 
# Revision: 2
# Processed by: cddbd v1.5.2PL0 Copyright (c) Steve Scherf et al.
# Submitted via: fre:ac v1.0.17
# 
DISCID=0a0de614
DTITLE=Horst Jankowski - Jazzclub Easy - A Walk In The Black Forest
DYEAR=2006
DGENRE=Jazz
TTITLE0=Chitty Chitty Bang Bang
TTITLE1=A Walk In The Black Forest
TTITLE2=My Gerti
TTITLE3=Moon River
TTITLE4=By The Time I Get To Phoenix
TTITLE5=Turkish March
TTITLE6=Tiflis Melody
TTITLE7=Our Beach Affair
TTITLE8=Games Of Memories
TTITLE9=This Guy's In Love With You
TTITLE10=I Will Wait For You
TTITLE11=Slick
TTITLE12=A Man And A Woman
TTITLE13=Yesterday
TTITLE14=Days Of Wine And Roses
TTITLE15=Fly Me To The Moon
TTITLE16=A Lover's Concerto
TTITLE17=Mac Arthur Park
TTITLE18=Violin Concerto In D Major
TTITLE19=And We Got Love
EXTD=YEAR: 2006
EXTT0=
EXTT1=
EXTT2=
EXTT3=
EXTT4=
EXTT5=
EXTT6=
EXTT7=
EXTT8=
EXTT9=
EXTT10=
EXTT11=
EXTT12=
EXTT13=
EXTT14=
EXTT15=
EXTT16=
EXTT17=
EXTT18=
EXTT19=
PLAYORDER=
